<?xml version="1.0" encoding="UTF-8"?>
<svg version="1.1" xmlns="http://www.w3.org/2000/svg" width="121" height="145">
<path d="M0 0 C39.93 0 79.86 0 121 0 C121 47.85 121 95.7 121 145 C81.07 145 41.14 145 0 145 C0 97.15 0 49.3 0 0 Z " fill="#8D9D60" transform="translate(0,0)"/>
<path d="M0 0 C39.93 0 79.86 0 121 0 C121 47.85 121 95.7 121 145 C81.07 145 41.14 145 0 145 C0 97.15 0 49.3 0 0 Z M38 11 C36.41251953 11.72896484 36.41251953 11.72896484 34.79296875 12.47265625 C23.64928593 17.9601741 13.98705245 25.36354428 9 37 C8.63648438 37.77859375 8.27296875 38.5571875 7.8984375 39.359375 C6.83009475 42.49937368 6.69920777 45.12420156 6.6875 48.4375 C6.67074219 49.52933594 6.65398438 50.62117188 6.63671875 51.74609375 C7.2975628 57.66526681 10.27991453 61.72864779 14.125 66.125 C14.82882813 66.95257813 15.53265625 67.78015625 16.2578125 68.6328125 C19.82650669 71.71348014 23.64130041 73.29370114 28 75 C27.75765625 76.13953125 27.5153125 77.2790625 27.265625 78.453125 C26.3629565 82.70810813 25.47094687 86.96526894 24.58203125 91.22314453 C24.1968857 93.0606636 23.80890714 94.89759137 23.41796875 96.73388672 C22.85439192 99.38356046 22.30126183 102.03524029 21.75 104.6875 C21.57500977 105.49928711 21.40001953 106.31107422 21.21972656 107.14746094 C19.31310707 116.05995217 19.31310707 116.05995217 21.28198242 124.72583008 C24.25922597 128.24803445 26.47340709 130.627702 31.04931641 131.74365234 C34.51385916 131.95855915 37.84754959 131.88588238 41.3125 131.6875 C42.49134766 131.66365234 43.67019531 131.63980469 44.88476562 131.61523438 C51.31264542 131.58972958 51.31264542 131.58972958 57 129 C58.36125 129.9590625 58.36125 129.9590625 59.75 130.9375 C65.49410617 134.58279815 71.31601655 134.75300573 78 134 C84.74867101 132.02137504 90.50041891 129.55830605 95 124 C95.47695312 123.52175781 95.95390625 123.04351562 96.4453125 122.55078125 C106.28436944 112.34090558 108.43451837 97.96432202 108.43823242 84.38452148 C108.30130961 77.8755609 107.43240169 73.00741596 103 68 C102.52304688 67.46117187 102.04609375 66.92234375 101.5546875 66.3671875 C100.09770636 64.80411232 100.09770636 64.80411232 98 63 C99.80247839 59.31120701 101.8276212 55.77349917 103.87890625 52.21875 C106.82371188 46.39070262 107.11269534 39.12749825 105.421875 32.85546875 C100.54181946 21.96407207 89.91793907 12.50862261 79 8 C66.90026676 4.36543522 49.19993613 5.35817866 38 11 Z " fill="#FDFEFD" transform="translate(0,0)"/>
<path d="M0 0 C5.05896976 5.4051098 5.47088594 11.71884467 5.41015625 18.82421875 C4.54493677 25.52348954 0.69648313 30.81423934 -4.375 35.125 C-5.24125 35.74375 -6.1075 36.3625 -7 37 C-5.04297985 38.3046801 -3.06417543 39.57742367 -1.0625 40.8125 C4.06055111 44.47182222 6.32141216 47.98864698 8 54 C9.38517622 67.91618903 6.68484714 81.76786513 -2 93 C-7.62749866 99.28185896 -13.44101359 102.38061433 -21.8046875 103.3125 C-26.4369909 103.51335868 -29.35045904 103.31907275 -33.5625 101.25 C-37.15407247 97.93470233 -37.90038633 96.39459132 -38.25 91.5 C-38.02253426 88.3154797 -37.6895025 86.63984765 -36 84 C-35.154375 84.66 -34.30875 85.32 -33.4375 86 C-29.46412407 88.31178236 -27.51990817 88.65744119 -23 88 C-17.7613688 85.19794145 -15.79355357 80.43341228 -14 75 C-12.24622519 66.47342378 -11.19792452 56.61708525 -16 49 C-19.7556112 46.22957554 -22.69135512 45.56640906 -27.3125 45.3125 C-28.91544922 45.21388672 -28.91544922 45.21388672 -30.55078125 45.11328125 C-31.35902344 45.07589844 -32.16726562 45.03851563 -33 45 C-33.08378906 46.26585937 -33.16757812 47.53171875 -33.25390625 48.8359375 C-34.09431941 57.22234509 -36.11833613 65.40869707 -37.9375 73.625 C-38.30192017 75.29416439 -38.66585599 76.96343461 -39.02929688 78.6328125 C-39.70158398 81.7071542 -40.37391981 84.78147409 -41.05444336 87.85400391 C-41.18910507 88.46337799 -41.32376678 89.07275208 -41.46250916 89.70059204 C-42.26731312 93.14357652 -43.14244357 96.56977427 -44 100 C-50.6 100 -57.2 100 -64 100 C-64 94.70895109 -63.65298991 90.45595791 -62.49609375 85.41796875 C-62.33743835 84.69849564 -62.17878296 83.97902252 -62.01531982 83.23774719 C-61.6735434 81.69100332 -61.32852746 80.14497231 -60.9805603 78.59960938 C-60.05067714 74.46935004 -59.14419351 70.3339353 -58.234375 66.19921875 C-58.04759689 65.3535434 -57.86081879 64.50786804 -57.66838074 63.63656616 C-55.60000664 54.24504483 -53.67251782 44.82541347 -51.76193237 35.40072632 C-49.97124765 26.56858889 -48.07609606 17.77008547 -46 9 C-38.59579981 6.7334081 -31.72457806 5.95207087 -24 6 C-24.78682435 10.02179644 -25.58032499 14.04224805 -26.375 18.0625 C-26.59671875 19.19623047 -26.8184375 20.32996094 -27.046875 21.49804688 C-28.15344854 27.07973398 -29.31163099 32.56408295 -31 38 C-22.96374182 35.79111891 -17.49736132 33.20599938 -13 26 C-9.32627446 18.80562082 -9.8020898 12.69181497 -11.75 5.0625 C-13.40776173 2.32719314 -14.99197367 1.9024079 -18 1 C-18.66 0.67 -19.32 0.34 -20 0 C-32.71335534 -0.85034504 -42.8886814 0.00183027 -53.1796875 8.23046875 C-59.15597152 14.0400324 -63.05083143 21.11568352 -63.1953125 29.5234375 C-63.18216369 31.14074138 -63.15852652 32.7579902 -63.125 34.375 C-63.11146484 35.62216797 -63.11146484 35.62216797 -63.09765625 36.89453125 C-63.0742622 38.92981337 -63.03839725 40.96494564 -63 43 C-67.64294746 42.81991842 -71.01442296 42.63651851 -75 40.0625 C-78.20146575 35.16025557 -78.58298845 30.36467621 -77.58984375 24.6328125 C-75.92108946 18.85712399 -72.88475714 14.5167272 -69 10 C-68.54367188 9.41476563 -68.08734375 8.82953125 -67.6171875 8.2265625 C-52.00523734 -9.83752643 -18.95904322 -14.38977741 0 0 Z " fill="#FBFCFA" transform="translate(89,19)"/>
<path d="M0 0 C1.65 0 3.3 0 5 0 C5.89797766 17.20126103 5.89797766 17.20126103 1.58203125 25.3125 C-0.46699669 27.4981298 -2.07587452 27.68547222 -5 28 C-4.37922374 21.52432348 -3.33183542 15.28837757 -1.9375 8.9375 C-1.75123047 8.07189453 -1.56496094 7.20628906 -1.37304688 6.31445312 C-0.91933733 4.20877549 -0.46023996 2.10425993 0 0 Z " fill="#F6F7F3" transform="translate(67,75)"/>
</svg>
